<?xml version="1.0" encoding="UTF-8" standalone="no"?>
<svg
   xmlns:dc="http://purl.org/dc/elements/1.1/"
   xmlns:cc="http://creativecommons.org/ns#"
   xmlns:rdf="http://www.w3.org/1999/02/22-rdf-syntax-ns#"
   xmlns:svg="http://www.w3.org/2000/svg"
   xmlns="http://www.w3.org/2000/svg"
   xmlns:sodipodi="http://sodipodi.sourceforge.net/DTD/sodipodi-0.dtd"
   xmlns:inkscape="http://www.inkscape.org/namespaces/inkscape"
   version="1.1"
   width="24"
   height="24"
   viewBox="0 0 24 24"
   id="svg4"
   sodipodi:docname="uE00A-zip.svg"
   inkscape:version="1.0.1 (3bc2e813f5, 2020-09-07)">
  <metadata
     id="metadata10">
    <rdf:RDF>
      <cc:Work
         rdf:about="">
        <dc:format>image/svg+xml</dc:format>
        <dc:type
           rdf:resource="http://purl.org/dc/dcmitype/StillImage" />
        <dc:title></dc:title>
      </cc:Work>
    </rdf:RDF>
  </metadata>
  <defs
     id="defs8" />
  <sodipodi:namedview
     pagecolor="#ffffff"
     bordercolor="#666666"
     borderopacity="1"
     objecttolerance="10"
     gridtolerance="10"
     guidetolerance="10"
     inkscape:pageopacity="0"
     inkscape:pageshadow="2"
     inkscape:window-width="2560"
     inkscape:window-height="1377"
     id="namedview6"
     showgrid="false"
     inkscape:zoom="25.043365"
     inkscape:cx="40.708099"
     inkscape:cy="13.399973"
     inkscape:window-x="2552"
     inkscape:window-y="-8"
     inkscape:window-maximized="1"
     inkscape:current-layer="svg4" />
  <path
     d="M13,9V3.5L18.5,9M6,2C4.89,2 4,2.89 4,4V20A2,2 0 0,0 6,22H18A2,2 0 0,0 20,20V8L14,2H6Z"
     id="path2" />
  <path
     d="M 11.955914,18.183172 V 17.01728 h 1.148145 v 1.165892 h -1.148145 m 1.148145,-2.331782 v -1.165892 h -1.148145 v 1.165892 h 1.148145 m 0,-2.331783 v -1.165892 h -1.148145 v 1.165892 h 1.148145 m -2.296289,1.165891 h 1.148144 V 13.519607 H 10.80777 v 1.165891 m 0,2.331782 h 1.148144 V 15.85139 H 10.80777 v 1.16589 m 6.314793,-5.829456 v 8.161239 c 0,0.64124 -0.516665,1.165891 -1.148144,1.165891 H 7.9374083 c -0.631479,0 -1.148144,-0.524651 -1.148144,-1.165891 v -8.161239 c 0,-0.64124 0.516665,-1.16589 1.148144,-1.16589 h 8.0370107 c 0.631479,0 1.148144,0.52465 1.148144,1.16589 m -1.148144,0 h -4.018505 v 1.165891 H 10.80777 V 11.187824 H 7.9374083 v 8.161239 h 8.0370107 z"
     id="path2-7"
     style="fill:#ffffff;stroke-width:0.578492" />
</svg>
