<?xml version="1.0" encoding="UTF-8" standalone="no"?>
<svg
   xmlns:dc="http://purl.org/dc/elements/1.1/"
   xmlns:cc="http://creativecommons.org/ns#"
   xmlns:rdf="http://www.w3.org/1999/02/22-rdf-syntax-ns#"
   xmlns:svg="http://www.w3.org/2000/svg"
   xmlns="http://www.w3.org/2000/svg"
   xmlns:sodipodi="http://sodipodi.sourceforge.net/DTD/sodipodi-0.dtd"
   xmlns:inkscape="http://www.inkscape.org/namespaces/inkscape"
   x="0"
   y="0"
   version="1.1"
   viewBox="0 0 64 64"
   width="512"
   height="512"
   id="svg44"
   sodipodi:docname="logo.svg"
   inkscape:version="0.92.4 (5da689c313, 2019-01-14)">
  <metadata
     id="metadata50">
    <rdf:RDF>
      <cc:Work
         rdf:about="">
        <dc:format>image/svg+xml</dc:format>
        <dc:type
           rdf:resource="http://purl.org/dc/dcmitype/StillImage" />
      </cc:Work>
    </rdf:RDF>
  </metadata>
  <defs
     id="defs48" />
  <sodipodi:namedview
     pagecolor="#ffffff"
     bordercolor="#666666"
     borderopacity="1"
     objecttolerance="10"
     gridtolerance="10"
     guidetolerance="10"
     inkscape:pageopacity="0"
     inkscape:pageshadow="2"
     inkscape:window-width="2560"
     inkscape:window-height="1377"
     id="namedview46"
     showgrid="false"
     inkscape:zoom="2.359375"
     inkscape:cx="256"
     inkscape:cy="256"
     inkscape:window-x="-8"
     inkscape:window-y="-8"
     inkscape:window-maximized="1"
     inkscape:current-layer="layer3" />
  <g
     inkscape:groupmode="layer"
     id="layer3"
     inkscape:label="background">
    <rect
       style="fill:#fefefe;fill-opacity:1;stroke-width:0.125"
       id="rect946"
       width="64"
       height="64"
       x="0"
       y="0"
       rx="8" />
  </g>
  <g
     inkscape:groupmode="layer"
     id="layer1"
     inkscape:label="main"
     sodipodi:insensitive="true">
    <g
       style="font-weight:normal;font-size:12px;font-family:sans-serif;text-anchor:start;mix-blend-mode:normal;fill:none;stroke:none;stroke-width:1;stroke-linecap:butt;stroke-linejoin:miter;stroke-miterlimit:10;stroke-dasharray:none;stroke-dashoffset:0"
       stroke-miterlimit="10"
       font-weight="normal"
       font-size="12"
       mix-blend-mode="normal"
       id="g42">
      <g
         id="g40">
        <g
           id="g38">
          <path
             d="M 0,64 V 0 h 64 v 64 z"
             id="path31"
             inkscape:connector-curvature="0"
             style="fill:none" />
          <path
             d="M 8,64 C 3.58172,64 0,60.41828 0,56 V 8 C 0,3.58172 3.58172,0 8,0 h 48 c 4.41828,0 8,3.58172 8,8 v 48 c 0,4.41828 -3.58172,8 -8,8 z m 46.08,-2.56 c 4.06482,0 7.36,-3.29518 7.36,-7.36 V 9.92 c 0,-4.06482 -3.29518,-7.36 -7.36,-7.36 H 9.92 c -4.06482,0 -7.36,3.29518 -7.36,7.36 v 44.16 c 0,4.06482 3.29518,7.36 7.36,7.36 z"
             id="path33"
             inkscape:connector-curvature="0"
             style="fill:#3498db" />
          <g
             id="lab"
             style="fill:#000000">
            <path
               d="M 54.2144,46.624 38.4,20.272 V 9.6 H 40 C 40.88,9.6 41.6,8.88 41.6,8 41.6,7.12 40.88,6.4 40,6.4 H 24 c -0.88,0 -1.6,0.72 -1.6,1.6 0,0.88 0.72,1.6 1.6,1.6 h 1.6 V 20.272 L 9.7856,46.624 C 6.1632,52.6608 8.96,57.6 16,57.6 h 32 c 7.04,0 9.8368,-4.9392 6.2144,-10.976 z M 18.452,38.4 28.8,21.152 V 9.6 h 6.4 V 21.152 L 45.548,38.4 Z"
               id="path35"
               inkscape:connector-curvature="0" />
          </g>
        </g>
      </g>
    </g>
  </g>
</svg>
